<svg xmlns="http://www.w3.org/2000/svg" width="512" height="512" viewBox="0 0 512 512" version="1.1">
	<path d="M 81.776 1.972 C 69.234 4.629, 60.811 7.583, 50 13.119 C 24.686 26.080, 10.832 43.257, 2.707 71.758 L 0.500 79.500 0.233 250.321 L -0.034 421.141 2.426 432.061 C 11.447 472.104, 34.618 497.851, 70.552 507.757 L 80.500 510.500 252.500 510.500 L 424.500 510.500 435 507.822 C 472.296 498.308, 497.327 476.628, 506.920 445.530 C 512.738 426.673, 512.414 437.761, 512.553 252.500 C 512.623 159, 512.414 84.975, 512.090 88 L 511.500 93.500 510.268 85.117 C 509.591 80.506, 507.316 71.682, 505.213 65.509 C 494.043 32.722, 472.471 11.962, 440.500 3.231 L 430.500 0.500 260.500 0.312 C 98.568 0.133, 90.086 0.211, 81.776 1.972 M 273.619 40.024 C 269.847 41.167, 266.079 44.709, 264.371 48.718 C 263.237 51.380, 263 71.492, 263 165.256 L 263 278.576 265.250 283.015 C 266.582 285.644, 268.927 288.279, 271 289.477 C 274.418 291.453, 276.068 291.500, 341.500 291.500 C 407.600 291.500, 408.554 291.472, 412.500 289.402 C 414.700 288.249, 417.400 285.774, 418.500 283.902 C 420.469 280.553, 420.500 278.699, 420.500 165.500 C 420.500 52.298, 420.469 50.447, 418.500 47.105 C 417.400 45.237, 415.230 42.762, 413.677 41.605 C 410.879 39.518, 410.270 39.498, 343.677 39.325 C 306.730 39.229, 275.204 39.544, 273.619 40.024 M 275 51 C 273.029 52.971, 273 54.333, 273 144.927 L 273 236.855 275.662 238.949 C 278.309 241.031, 278.672 241.041, 342.751 240.771 L 407.177 240.500 409.089 238.139 C 410.939 235.854, 411 232.884, 411 145.024 C 411 54.725, 410.990 54.257, 408.927 51.635 L 406.855 49 341.927 49 C 278.333 49, 276.959 49.041, 275 51 M 0.489 253.500 C 0.489 347, 0.606 385.398, 0.750 338.829 C 0.894 292.260, 0.894 215.760, 0.750 168.829 C 0.606 121.898, 0.489 160, 0.489 253.500 M 82 206.500 L 82 318 205.500 318 L 329 318 329 308.556 L 329 299.113 300.250 298.806 L 271.500 298.500 266.837 295.759 C 264.272 294.251, 261.198 291.439, 260.005 289.509 L 257.837 286 183.418 286 L 109 286 109 280.500 L 109 275 182.500 275 L 256 275 256 261.500 L 256 248 182.500 248 L 109 248 109 242.500 L 109 237 182.500 237 L 256 237 256 224 L 256 211 182.500 211 L 109 211 109 205.500 L 109 200 182.500 200 L 256 200 256 187 L 256 174 182.500 174 L 109 174 109 168.500 L 109 163 182.500 163 L 256 163 256 129 L 256 95 169 95 L 82 95 82 206.500 M 385.780 103.941 C 366.041 117.144, 335.507 149.207, 324.772 168.006 C 323.522 170.194, 322.275 171.986, 322 171.989 C 321.725 171.991, 320.689 170.020, 319.698 167.610 C 317.075 161.231, 312.501 154.374, 309.601 152.474 C 306.475 150.426, 302.389 151.533, 296.160 156.114 L 291.987 159.183 297.042 163.727 C 302.279 168.437, 308.046 178.907, 313.014 192.729 C 314.505 196.877, 315.642 198.714, 316.419 198.229 C 326.799 191.740, 330.207 188.296, 334.942 179.513 C 348.381 154.583, 376.990 117.782, 391.340 106.966 C 396.210 103.295, 396.852 101.952, 394.619 100.099 C 393.534 99.198, 391.639 100.022, 385.780 103.941 M 317.974 258.750 C 316.183 261.019, 315.881 262.447, 316.248 266.916 C 316.982 275.867, 317.361 276, 342.111 276 C 361.667 276, 363.128 275.872, 365 274 C 367.544 271.456, 367.821 261.617, 365.443 258.223 C 363.915 256.041, 363.483 256, 342.016 256 L 320.145 256 317.974 258.750 M 2 368.369 C 2 421.406, 2.406 426.464, 8.013 443.199 C 19.277 476.818, 39.815 496.736, 72.509 505.746 L 82.500 508.500 251.500 508.500 C 434.933 508.500, 425.049 508.788, 443.154 502.924 C 472.825 493.316, 493.724 474.579, 502.940 449.326 C 509.193 432.195, 509.262 431.413, 509.727 373.250 L 510.153 320 256.077 320 L 2 320 2 368.369 M 111 361.537 C 100.932 364.663, 94.028 374.312, 94.010 385.282 C 93.998 392.116, 95.559 396.289, 100.030 401.382 C 105.141 407.203, 110.270 409.441, 118.500 409.441 C 126.467 409.441, 131.378 407.389, 136.699 401.838 C 142.624 395.656, 144.576 386.215, 141.911 376.619 C 140.308 370.844, 132.552 363.538, 125.941 361.575 C 119.604 359.693, 116.959 359.686, 111 361.537 M 334 417 C 334 443.667, 334.350 458, 335 458 C 335.650 458, 336 443.667, 336 417 C 336 390.333, 335.650 376, 335 376 C 334.350 376, 334 390.333, 334 417 M 427.909 385.489 C 421.609 387.518, 414.691 393.892, 411.306 400.786 C 408.686 406.122, 408.500 407.327, 408.500 419 C 408.500 430.193, 408.746 431.970, 410.858 436 C 413.893 441.793, 418.464 446.615, 423.500 449.338 C 426.892 451.171, 429.097 451.495, 438 451.467 C 446.799 451.439, 449.350 451.054, 453.750 449.094 L 459 446.754 459 430.877 L 459 415 446.369 415 L 433.738 415 434.358 418.750 C 434.699 420.813, 434.983 423.039, 434.989 423.698 C 434.996 424.436, 437.015 425.012, 440.250 425.198 L 445.500 425.500 445.801 432.476 C 446.047 438.182, 445.785 439.684, 444.360 440.726 C 441.985 442.463, 434.500 442.331, 430.607 440.484 C 425.120 437.880, 423.587 433.965, 423.168 421.480 C 422.742 408.773, 423.888 403.276, 427.900 398.785 C 430.322 396.076, 431.505 395.595, 436.601 395.250 C 441.407 394.924, 443.384 395.304, 447.267 397.298 L 452.034 399.745 455.120 395.849 C 458.744 391.273, 458.327 390.314, 451.267 386.995 C 445.265 384.174, 434.204 383.461, 427.909 385.489 M 52.412 391.250 C 55.242 417.640, 73.639 440.405, 98.500 448.282 C 104.314 450.124, 107.788 450.496, 119 450.478 C 131.075 450.459, 133.274 450.176, 139.835 447.799 C 164.671 438.800, 182.028 417.064, 184.592 391.750 L 185.276 385 168.776 385 L 152.276 385 151.162 390.549 C 149.005 401.287, 143.107 409.447, 133.868 414.475 C 126.472 418.501, 115.087 419.170, 106.853 416.064 C 96.137 412.021, 87.150 400.849, 85.440 389.447 L 84.773 385 68.257 385 L 51.742 385 52.412 391.250 M 210.022 411.250 C 210.042 434.873, 210.234 437.919, 211.943 441.684 C 214.361 447.008, 219.828 450.666, 227.480 452.081 C 238.594 454.135, 250.839 450.213, 255.198 443.202 C 257.430 439.613, 257.510 438.671, 257.822 412.250 L 258.143 385 251.072 385 L 244 385 244 410.545 L 244 436.091 241.545 438.545 C 239.582 440.509, 238.072 441, 234 441 C 229.928 441, 228.418 440.509, 226.455 438.545 L 224 436.091 224 410.545 L 224 385 217 385 L 210 385 210.022 411.250 M 271 418 L 271 451 277.976 451 L 284.952 451 285.226 434.594 L 285.500 418.188 295 434.585 L 304.500 450.982 313.230 450.991 L 321.960 451 317.190 443.750 C 314.566 439.762, 309.322 431.873, 305.536 426.218 L 298.652 415.935 302.655 410.218 C 304.856 407.073, 309.661 400.113, 313.332 394.750 L 320.006 385 311.753 385.003 L 303.500 385.006 294.500 399.633 L 285.500 414.260 285.223 399.630 L 284.947 385 277.973 385 L 271 385 271 418 M 353 418 L 353 451 369.532 451 C 387.907 451, 390.870 450.320, 395.270 445.091 C 402.554 436.434, 400.455 422.908, 391.109 418.284 L 387.267 416.383 390.113 414.750 C 396.269 411.217, 398.917 401.608, 395.536 395.069 C 393.510 391.152, 388.648 387.274, 384.219 386.044 C 382.174 385.476, 374.313 385.009, 366.750 385.006 L 353 385 353 418 M 366 403.863 L 366 412 371.865 412 C 379.566 412, 383 409.559, 383 404.082 C 383 398.723, 380.560 396.895, 372.548 396.252 L 366 395.726 366 403.863 M 366.211 431.750 L 366.500 440.500 371.564 440.796 C 374.350 440.959, 377.859 440.624, 379.363 440.052 C 382.739 438.768, 385.380 433.008, 384.478 428.898 C 383.510 424.491, 380.541 423, 372.739 423 L 365.922 423 366.211 431.750" stroke="none" fill="black" fill-rule="evenodd"/>
</svg>